# Blender v2.79 (sub 0) OBJ File: ''
# www.blender.org
mtllib floor.mtl
o Grid
v -32.000000 -32.000000 0.000000
v 32.000000 -32.000000 0.000000
v -32.000000 32.000000 0.000000
v 32.000000 32.000000 0.000000
v -10.666666 -32.000000 0.000000
v 10.666666 -32.000000 0.000000
v -32.000000 10.666666 0.000000
v -32.000000 -10.666666 0.000000
v 32.000000 -10.666666 0.000000
v 32.000000 10.666666 0.000000
v 10.666666 32.000000 0.000000
v -10.666666 32.000000 0.000000
v 10.666666 -10.666666 0.000000
v -10.666666 -10.666666 0.000000
v 10.666666 10.666666 0.000000
v -10.666666 10.666666 0.000000
v 17.777779 -32.000000 0.000000
v 24.888889 -32.000000 0.000000
v -32.000000 -17.777779 0.000000
v -32.000000 -24.888889 0.000000
v 32.000000 17.777779 0.000000
v 32.000000 24.888889 0.000000
v -17.777779 32.000000 0.000000
v -24.888889 32.000000 0.000000
v -24.888889 -32.000000 0.000000
v -17.777779 -32.000000 0.000000
v -3.555555 -32.000000 0.000000
v 3.555555 -32.000000 0.000000
v -32.000000 24.888889 0.000000
v -32.000000 17.777779 0.000000
v -32.000000 3.555555 0.000000
v -32.000000 -3.555555 0.000000
v 32.000000 -24.888889 0.000000
v 32.000000 -17.777779 0.000000
v 32.000000 -3.555555 0.000000
v 32.000000 3.555555 0.000000
v 24.888889 32.000000 0.000000
v 17.777779 32.000000 0.000000
v 3.555555 32.000000 0.000000
v -3.555555 32.000000 0.000000
v -17.777779 -10.666666 0.000000
v -24.888889 -10.666666 0.000000
v 24.888889 -10.666666 0.000000
v 17.777779 -10.666666 0.000000
v 3.555555 -10.666666 0.000000
v -3.555555 -10.666666 0.000000
v -17.777779 10.666666 0.000000
v -24.888889 10.666666 0.000000
v 24.888889 10.666666 0.000000
v 17.777779 10.666666 0.000000
v 3.555555 10.666666 0.000000
v -3.555555 10.666666 0.000000
v 10.666666 -17.777779 0.000000
v 10.666666 -24.888889 0.000000
v -10.666666 -17.777779 0.000000
v -10.666666 -24.888889 0.000000
v 10.666666 3.555555 0.000000
v 10.666666 -3.555555 0.000000
v -10.666666 3.555555 0.000000
v -10.666666 -3.555555 0.000000
v 10.666666 24.888889 0.000000
v 10.666666 17.777779 0.000000
v -10.666666 24.888889 0.000000
v -10.666666 17.777779 0.000000
v 3.555555 17.777779 0.000000
v -3.555555 17.777779 0.000000
v 3.555555 24.888889 0.000000
v -3.555555 24.888889 0.000000
v 24.888889 17.777779 0.000000
v 17.777779 17.777779 0.000000
v 24.888889 24.888889 0.000000
v 17.777779 24.888889 0.000000
v 3.555555 -3.555555 0.000000
v -3.555555 -3.555555 0.000000
v 3.555555 3.555555 0.000000
v -3.555555 3.555555 0.000000
v 24.888889 -3.555555 0.000000
v 17.777779 -3.555555 0.000000
v 24.888889 3.555555 0.000000
v 17.777779 3.555555 0.000000
v 3.555555 -24.888889 0.000000
v -3.555555 -24.888889 0.000000
v 3.555555 -17.777779 0.000000
v -3.555555 -17.777779 0.000000
v 24.888889 -24.888889 0.000000
v 17.777779 -24.888889 0.000000
v 24.888889 -17.777779 0.000000
v 17.777779 -17.777779 0.000000
v -17.777779 -3.555555 0.000000
v -24.888889 -3.555555 0.000000
v -17.777779 3.555555 0.000000
v -24.888889 3.555555 0.000000
v -17.777779 -24.888889 0.000000
v -24.888889 -24.888889 0.000000
v -17.777779 -17.777779 0.000000
v -24.888889 -17.777779 0.000000
v -17.777779 17.777779 0.000000
v -24.888889 17.777779 0.000000
v -17.777779 24.888889 0.000000
v -24.888889 24.888889 0.000000
vt 1.000000 0.000000
vt 0.000000 1.000000
vt 0.000000 0.000000
vt 1.000000 0.000000
vt 0.000000 1.000000
vt 0.000000 0.000000
vt 1.000000 0.000000
vt 0.000000 1.000000
vt 0.000000 0.000000
vt 1.000000 0.000000
vt 0.000000 1.000000
vt 0.000000 0.000000
vt 1.000000 0.000000
vt 0.000000 1.000000
vt 0.000000 0.000000
vt 1.000000 0.000000
vt 0.000000 1.000000
vt 0.000000 0.000000
vt 1.000000 0.000000
vt 0.000000 1.000000
vt 0.000000 0.000000
vt 1.000000 0.000000
vt 0.000000 1.000000
vt 0.000000 0.000000
vt 1.000000 0.000000
vt 0.000000 1.000000
vt 0.000000 0.000000
vt 1.000000 0.000000
vt 0.000000 1.000000
vt 0.000000 0.000000
vt 1.000000 0.000000
vt 0.000000 1.000000
vt 0.000000 0.000000
vt 1.000000 0.000000
vt 0.000000 1.000000
vt 0.000000 0.000000
vt 1.000000 0.000000
vt 0.000000 1.000000
vt 0.000000 0.000000
vt 1.000000 0.000000
vt 0.000000 1.000000
vt 0.000000 0.000000
vt 1.000000 0.000000
vt 0.000000 1.000000
vt 0.000000 0.000000
vt 1.000000 0.000000
vt 0.000000 1.000000
vt 0.000000 0.000000
vt 1.000000 0.000000
vt 0.000000 1.000000
vt 0.000000 0.000000
vt 1.000000 0.000000
vt 0.000000 1.000000
vt 0.000000 0.000000
vt 1.000000 0.000000
vt 0.000000 1.000000
vt 0.000000 0.000000
vt 1.000000 0.000000
vt 0.000000 1.000000
vt 0.000000 0.000000
vt 1.000000 0.000000
vt 0.000000 1.000000
vt 0.000000 0.000000
vt 1.000000 0.000000
vt 0.000000 1.000000
vt 0.000000 0.000000
vt 1.000000 0.000000
vt 0.000000 1.000000
vt 0.000000 0.000000
vt 1.000000 0.000000
vt 0.000000 1.000000
vt 0.000000 0.000000
vt 1.000000 0.000000
vt 0.000000 1.000000
vt 0.000000 0.000000
vt 1.000000 0.000000
vt 0.000000 1.000000
vt 0.000000 0.000000
vt 1.000000 0.000000
vt 0.000000 1.000000
vt 0.000000 0.000000
vt 1.000000 0.000000
vt 0.000000 1.000000
vt 0.000000 0.000000
vt 1.000000 0.000000
vt 0.000000 1.000000
vt 0.000000 0.000000
vt 1.000000 0.000000
vt 0.000000 1.000000
vt 0.000000 0.000000
vt 1.000000 0.000000
vt 0.000000 1.000000
vt 0.000000 0.000000
vt 1.000000 0.000000
vt 0.000000 1.000000
vt 0.000000 0.000000
vt 1.000000 0.000000
vt 0.000000 1.000000
vt 0.000000 0.000000
vt 1.000000 0.000000
vt 0.000000 1.000000
vt 0.000000 0.000000
vt 1.000000 0.000000
vt 0.000000 1.000000
vt 0.000000 0.000000
vt 1.000000 0.000000
vt 0.000000 1.000000
vt 0.000000 0.000000
vt 1.000000 0.000000
vt 0.000000 1.000000
vt 0.000000 0.000000
vt 1.000000 0.000000
vt 0.000000 1.000000
vt 0.000000 0.000000
vt 1.000000 0.000000
vt 0.000000 1.000000
vt 0.000000 0.000000
vt 1.000000 0.000000
vt 0.000000 1.000000
vt 0.000000 0.000000
vt 1.000000 0.000000
vt 0.000000 1.000000
vt 0.000000 0.000000
vt 1.000000 0.000000
vt 0.000000 1.000000
vt 0.000000 0.000000
vt 1.000000 0.000000
vt 0.000000 1.000000
vt 0.000000 0.000000
vt 1.000000 0.000000
vt 0.000000 1.000000
vt 0.000000 0.000000
vt 1.000000 0.000000
vt 0.000000 1.000000
vt 0.000000 0.000000
vt 1.000000 0.000000
vt 0.000000 1.000000
vt 0.000000 0.000000
vt 1.000000 0.000000
vt 0.000000 1.000000
vt 0.000000 0.000000
vt 1.000000 0.000000
vt 0.000000 1.000000
vt 0.000000 0.000000
vt 1.000000 0.000000
vt 0.000000 1.000000
vt 0.000000 0.000000
vt 1.000000 0.000000
vt 0.000000 1.000000
vt 0.000000 0.000000
vt 1.000000 0.000000
vt 0.000000 1.000000
vt 0.000000 0.000000
vt 1.000000 0.000000
vt 0.000000 1.000000
vt 0.000000 0.000000
vt 1.000000 0.000000
vt 0.000000 1.000000
vt 0.000000 0.000000
vt 1.000000 0.000000
vt 0.000000 1.000000
vt 0.000000 0.000000
vt 1.000000 0.000000
vt 0.000000 1.000000
vt 0.000000 0.000000
vt 1.000000 0.000000
vt 0.000000 1.000000
vt 0.000000 0.000000
vt 1.000000 0.000000
vt 0.000000 1.000000
vt 0.000000 0.000000
vt 1.000000 0.000000
vt 0.000000 1.000000
vt 0.000000 0.000000
vt 1.000000 0.000000
vt 0.000000 1.000000
vt 0.000000 0.000000
vt 1.000000 0.000000
vt 0.000000 1.000000
vt 0.000000 0.000000
vt 1.000000 0.000000
vt 0.000000 1.000000
vt 0.000000 0.000000
vt 1.000000 0.000000
vt 0.000000 1.000000
vt 0.000000 0.000000
vt 1.000000 0.000000
vt 0.000000 1.000000
vt 0.000000 0.000000
vt 1.000000 0.000000
vt 0.000000 1.000000
vt 0.000000 0.000000
vt 1.000000 0.000000
vt 0.000000 1.000000
vt 0.000000 0.000000
vt 1.000000 0.000000
vt 0.000000 1.000000
vt 0.000000 0.000000
vt 1.000000 0.000000
vt 0.000000 1.000000
vt 0.000000 0.000000
vt 1.000000 0.000000
vt 0.000000 1.000000
vt 0.000000 0.000000
vt 1.000000 0.000000
vt 0.000000 1.000000
vt 0.000000 0.000000
vt 1.000000 0.000000
vt 0.000000 1.000000
vt 0.000000 0.000000
vt 1.000000 0.000000
vt 0.000000 1.000000
vt 0.000000 0.000000
vt 1.000000 0.000000
vt 0.000000 1.000000
vt 0.000000 0.000000
vt 1.000000 0.000000
vt 0.000000 1.000000
vt 0.000000 0.000000
vt 1.000000 0.000000
vt 0.000000 1.000000
vt 0.000000 0.000000
vt 1.000000 0.000000
vt 0.000000 1.000000
vt 0.000000 0.000000
vt 1.000000 0.000000
vt 0.000000 1.000000
vt 0.000000 0.000000
vt 1.000000 0.000000
vt 0.000000 1.000000
vt 0.000000 0.000000
vt 1.000000 0.000000
vt 0.000000 1.000000
vt 0.000000 0.000000
vt 1.000000 0.000000
vt 0.000000 1.000000
vt 0.000000 0.000000
vt 1.000000 0.000000
vt 0.000000 1.000000
vt 0.000000 0.000000
vt 1.000000 0.000000
vt 0.000000 1.000000
vt 0.000000 0.000000
vt 1.000000 1.000000
vt 1.000000 1.000000
vt 1.000000 1.000000
vt 1.000000 1.000000
vt 1.000000 1.000000
vt 1.000000 1.000000
vt 1.000000 1.000000
vt 1.000000 1.000000
vt 1.000000 1.000000
vt 1.000000 1.000000
vt 1.000000 1.000000
vt 1.000000 1.000000
vt 1.000000 1.000000
vt 1.000000 1.000000
vt 1.000000 1.000000
vt 1.000000 1.000000
vt 1.000000 1.000000
vt 1.000000 1.000000
vt 1.000000 1.000000
vt 1.000000 1.000000
vt 1.000000 1.000000
vt 1.000000 1.000000
vt 1.000000 1.000000
vt 1.000000 1.000000
vt 1.000000 1.000000
vt 1.000000 1.000000
vt 1.000000 1.000000
vt 1.000000 1.000000
vt 1.000000 1.000000
vt 1.000000 1.000000
vt 1.000000 1.000000
vt 1.000000 1.000000
vt 1.000000 1.000000
vt 1.000000 1.000000
vt 1.000000 1.000000
vt 1.000000 1.000000
vt 1.000000 1.000000
vt 1.000000 1.000000
vt 1.000000 1.000000
vt 1.000000 1.000000
vt 1.000000 1.000000
vt 1.000000 1.000000
vt 1.000000 1.000000
vt 1.000000 1.000000
vt 1.000000 1.000000
vt 1.000000 1.000000
vt 1.000000 1.000000
vt 1.000000 1.000000
vt 1.000000 1.000000
vt 1.000000 1.000000
vt 1.000000 1.000000
vt 1.000000 1.000000
vt 1.000000 1.000000
vt 1.000000 1.000000
vt 1.000000 1.000000
vt 1.000000 1.000000
vt 1.000000 1.000000
vt 1.000000 1.000000
vt 1.000000 1.000000
vt 1.000000 1.000000
vt 1.000000 1.000000
vt 1.000000 1.000000
vt 1.000000 1.000000
vt 1.000000 1.000000
vt 1.000000 1.000000
vt 1.000000 1.000000
vt 1.000000 1.000000
vt 1.000000 1.000000
vt 1.000000 1.000000
vt 1.000000 1.000000
vt 1.000000 1.000000
vt 1.000000 1.000000
vt 1.000000 1.000000
vt 1.000000 1.000000
vt 1.000000 1.000000
vt 1.000000 1.000000
vt 1.000000 1.000000
vt 1.000000 1.000000
vt 1.000000 1.000000
vt 1.000000 1.000000
vt 1.000000 1.000000
vn 0.0000 0.0000 1.0000
usemtl None
s off
f 24/1/1 29/2/1 100/3/1
f 42/4/1 19/5/1 96/6/1
f 48/7/1 31/8/1 92/9/1
f 44/10/1 53/11/1 88/12/1
f 46/13/1 55/14/1 84/15/1
f 50/16/1 57/17/1 80/18/1
f 52/19/1 59/20/1 76/21/1
f 38/22/1 61/23/1 72/24/1
f 40/25/1 63/26/1 68/27/1
f 66/28/1 16/29/1 52/30/1
f 68/31/1 64/32/1 66/33/1
f 62/34/1 51/35/1 15/36/1
f 65/37/1 52/38/1 51/39/1
f 61/40/1 65/41/1 62/42/1
f 67/43/1 66/44/1 65/45/1
f 11/46/1 67/47/1 61/48/1
f 39/49/1 68/50/1 67/51/1
f 70/52/1 15/53/1 50/54/1
f 72/55/1 62/56/1 70/57/1
f 21/58/1 49/59/1 10/60/1
f 69/61/1 50/62/1 49/63/1
f 22/64/1 69/65/1 21/66/1
f 71/67/1 70/68/1 69/69/1
f 4/70/1 71/71/1 22/72/1
f 37/73/1 72/74/1 71/75/1
f 74/76/1 14/77/1 46/78/1
f 76/79/1 60/80/1 74/81/1
f 58/82/1 45/83/1 13/84/1
f 73/85/1 46/86/1 45/87/1
f 57/88/1 73/89/1 58/90/1
f 75/91/1 74/92/1 73/93/1
f 15/94/1 75/95/1 57/96/1
f 51/97/1 76/98/1 75/99/1
f 78/100/1 13/101/1 44/102/1
f 80/103/1 58/104/1 78/105/1
f 35/106/1 43/107/1 9/108/1
f 77/109/1 44/110/1 43/111/1
f 36/112/1 77/113/1 35/114/1
f 79/115/1 78/116/1 77/117/1
f 10/118/1 79/119/1 36/120/1
f 49/121/1 80/122/1 79/123/1
f 82/124/1 5/125/1 27/126/1
f 84/127/1 56/128/1 82/129/1
f 54/130/1 28/131/1 6/132/1
f 81/133/1 27/134/1 28/135/1
f 53/136/1 81/137/1 54/138/1
f 83/139/1 82/140/1 81/141/1
f 13/142/1 83/143/1 53/144/1
f 45/145/1 84/146/1 83/147/1
f 86/148/1 6/149/1 17/150/1
f 88/151/1 54/152/1 86/153/1
f 33/154/1 18/155/1 2/156/1
f 85/157/1 17/158/1 18/159/1
f 34/160/1 85/161/1 33/162/1
f 87/163/1 86/164/1 85/165/1
f 9/166/1 87/167/1 34/168/1
f 43/169/1 88/170/1 87/171/1
f 90/172/1 8/173/1 42/174/1
f 92/175/1 32/176/1 90/177/1
f 60/178/1 41/179/1 14/180/1
f 89/181/1 42/182/1 41/183/1
f 59/184/1 89/185/1 60/186/1
f 91/187/1 90/188/1 89/189/1
f 16/190/1 91/191/1 59/192/1
f 47/193/1 92/194/1 91/195/1
f 94/196/1 1/197/1 25/198/1
f 96/199/1 20/200/1 94/201/1
f 56/202/1 26/203/1 5/204/1
f 93/205/1 25/206/1 26/207/1
f 55/208/1 93/209/1 56/210/1
f 95/211/1 94/212/1 93/213/1
f 14/214/1 95/215/1 55/216/1
f 41/217/1 96/218/1 95/219/1
f 98/220/1 7/221/1 48/222/1
f 100/223/1 30/224/1 98/225/1
f 64/226/1 47/227/1 16/228/1
f 97/229/1 48/230/1 47/231/1
f 63/232/1 97/233/1 64/234/1
f 99/235/1 98/236/1 97/237/1
f 12/238/1 99/239/1 63/240/1
f 23/241/1 100/242/1 99/243/1
f 24/1/1 3/244/1 29/2/1
f 42/4/1 8/245/1 19/5/1
f 48/7/1 7/246/1 31/8/1
f 44/10/1 13/247/1 53/11/1
f 46/13/1 14/248/1 55/14/1
f 50/16/1 15/249/1 57/17/1
f 52/19/1 16/250/1 59/20/1
f 38/22/1 11/251/1 61/23/1
f 40/25/1 12/252/1 63/26/1
f 66/28/1 64/253/1 16/29/1
f 68/31/1 63/254/1 64/32/1
f 62/34/1 65/255/1 51/35/1
f 65/37/1 66/256/1 52/38/1
f 61/40/1 67/257/1 65/41/1
f 67/43/1 68/258/1 66/44/1
f 11/46/1 39/259/1 67/47/1
f 39/49/1 40/260/1 68/50/1
f 70/52/1 62/261/1 15/53/1
f 72/55/1 61/262/1 62/56/1
f 21/58/1 69/263/1 49/59/1
f 69/61/1 70/264/1 50/62/1
f 22/64/1 71/265/1 69/65/1
f 71/67/1 72/266/1 70/68/1
f 4/70/1 37/267/1 71/71/1
f 37/73/1 38/268/1 72/74/1
f 74/76/1 60/269/1 14/77/1
f 76/79/1 59/270/1 60/80/1
f 58/82/1 73/271/1 45/83/1
f 73/85/1 74/272/1 46/86/1
f 57/88/1 75/273/1 73/89/1
f 75/91/1 76/274/1 74/92/1
f 15/94/1 51/275/1 75/95/1
f 51/97/1 52/276/1 76/98/1
f 78/100/1 58/277/1 13/101/1
f 80/103/1 57/278/1 58/104/1
f 35/106/1 77/279/1 43/107/1
f 77/109/1 78/280/1 44/110/1
f 36/112/1 79/281/1 77/113/1
f 79/115/1 80/282/1 78/116/1
f 10/118/1 49/283/1 79/119/1
f 49/121/1 50/284/1 80/122/1
f 82/124/1 56/285/1 5/125/1
f 84/127/1 55/286/1 56/128/1
f 54/130/1 81/287/1 28/131/1
f 81/133/1 82/288/1 27/134/1
f 53/136/1 83/289/1 81/137/1
f 83/139/1 84/290/1 82/140/1
f 13/142/1 45/291/1 83/143/1
f 45/145/1 46/292/1 84/146/1
f 86/148/1 54/293/1 6/149/1
f 88/151/1 53/294/1 54/152/1
f 33/154/1 85/295/1 18/155/1
f 85/157/1 86/296/1 17/158/1
f 34/160/1 87/297/1 85/161/1
f 87/163/1 88/298/1 86/164/1
f 9/166/1 43/299/1 87/167/1
f 43/169/1 44/300/1 88/170/1
f 90/172/1 32/301/1 8/173/1
f 92/175/1 31/302/1 32/176/1
f 60/178/1 89/303/1 41/179/1
f 89/181/1 90/304/1 42/182/1
f 59/184/1 91/305/1 89/185/1
f 91/187/1 92/306/1 90/188/1
f 16/190/1 47/307/1 91/191/1
f 47/193/1 48/308/1 92/194/1
f 94/196/1 20/309/1 1/197/1
f 96/199/1 19/310/1 20/200/1
f 56/202/1 93/311/1 26/203/1
f 93/205/1 94/312/1 25/206/1
f 55/208/1 95/313/1 93/209/1
f 95/211/1 96/314/1 94/212/1
f 14/214/1 41/315/1 95/215/1
f 41/217/1 42/316/1 96/218/1
f 98/220/1 30/317/1 7/221/1
f 100/223/1 29/318/1 30/224/1
f 64/226/1 97/319/1 47/227/1
f 97/229/1 98/320/1 48/230/1
f 63/232/1 99/321/1 97/233/1
f 99/235/1 100/322/1 98/236/1
f 12/238/1 23/323/1 99/239/1
f 23/241/1 24/324/1 100/242/1
