# Blender v2.79 (sub 0) OBJ File: ''
# www.blender.org
o Cube_Cube.001
v -0.375000 0.500000 0.125000
v -0.375000 0.500000 0.875000
v 0.375000 0.500000 0.875000
v 0.250000 0.500000 0.125000
v 0.375000 0.500000 0.125000
v 0.500000 0.375000 0.125000
v 0.500000 0.375000 0.625000
v 0.500000 0.375000 0.750000
v 0.500000 0.375000 0.875000
v 0.500000 -0.375000 0.875000
v 0.500000 -0.375000 0.125000
v -0.375000 -0.400000 0.125000
v -0.375000 -0.400000 0.875000
v 0.375000 -0.500000 0.125000
v 0.375000 -0.400000 0.125000
v 0.375000 -0.500000 0.875000
v 0.375000 -0.400000 0.875000
v -0.250000 -0.500000 0.875000
v -0.375000 -0.500000 0.875000
v -0.375000 -0.500000 0.125000
v -0.400000 0.375000 0.125000
v -0.400000 0.375000 0.875000
v -0.500000 -0.375000 0.125000
v -0.400000 -0.375000 0.125000
v -0.500000 -0.375000 0.875000
v -0.400000 -0.375000 0.875000
v -0.500000 0.250000 0.875000
v -0.500000 0.375000 0.875000
v -0.500000 0.375000 0.125000
v 0.375000 -0.375000 1.000000
v 0.375000 0.250000 1.000000
v 0.375000 0.375000 1.000000
v -0.375000 0.375000 1.000000
v -0.375000 -0.375000 1.000000
v 0.250000 0.500000 0.000000
v 0.500000 0.500000 0.750000
v 0.500000 0.500000 0.625000
v 0.500000 0.500000 0.125000
v 0.500000 0.375000 1.000000
v 0.500000 0.250000 1.000000
v -0.250000 -0.500000 1.000000
v -0.375000 -0.500000 1.000000
v -0.500000 0.250000 1.000000
v -0.500000 0.375000 1.000000
v -0.500000 0.500000 0.000000
v -0.500000 0.500000 1.000000
v 0.500000 0.500000 0.000000
v 0.500000 0.500000 1.000000
v -0.500000 -0.500000 0.000000
v -0.500000 -0.500000 1.000000
v 0.500000 -0.500000 0.000000
v 0.500000 -0.500000 1.000000
v -0.375000 0.400000 0.125000
v -0.375000 0.400000 0.875000
v 0.375000 0.400000 0.875000
v 0.375000 0.400000 0.125000
v 0.400000 0.375000 0.125000
v 0.400000 0.375000 0.875000
v 0.400000 -0.375000 0.875000
v 0.400000 -0.375000 0.125000
v 0.375000 -0.375000 0.900000
v 0.375000 0.375000 0.900000
v -0.375000 0.375000 0.900000
v -0.375000 -0.375000 0.900000
vt 0.500000 0.800000
vt 0.650000 0.200000
vt 0.650000 0.800000
vt 0.350000 0.800000
vt 0.200000 0.800000
vt 0.200000 0.700000
vt 0.800000 0.800000
vt 0.650000 0.200000
vt 0.800000 0.200000
vt 0.125000 0.125000
vt 0.000000 0.000001
vt 1.000000 0.000000
vt 0.500000 0.200000
vt 0.350000 0.800000
vt 0.350000 0.200000
vt 0.500000 0.800000
vt 0.650000 0.200000
vt 0.650000 0.800000
vt 1.000000 0.625000
vt 0.875000 0.750000
vt 0.875000 0.625000
vt 0.000000 0.000000
vt 0.125000 0.875000
vt 0.000000 1.000000
vt 0.000000 0.000000
vt 1.000000 0.000000
vt 0.875000 0.125000
vt 0.750000 1.000000
vt 0.875000 0.875000
vt 1.000000 1.000000
vt 0.650000 0.200000
vt 0.800000 0.800000
vt 0.650000 0.800000
vt 0.350000 0.200000
vt 0.500000 0.800000
vt 0.350000 0.800000
vt 0.999900 0.000100
vt 0.000100 0.999900
vt 0.000100 0.000100
vt 0.250000 1.000000
vt 0.125000 0.875000
vt 0.250000 0.875000
vt 0.650000 0.200000
vt 0.800000 0.700000
vt 0.650000 0.800000
vt 0.612500 0.275000
vt 0.725000 0.725000
vt 0.612500 0.725000
vt 1.000000 1.000000
vt 0.000000 1.000000
vt 0.000000 0.250000
vt 0.650000 0.700000
vt 0.500000 0.800000
vt 0.500000 0.200000
vt 0.999900 0.999900
vt 0.000100 0.000100
vt 0.999900 0.000100
vt 0.875000 0.875000
vt 1.000000 1.000000
vt 0.000000 1.000000
vt 0.750000 0.000000
vt 0.875000 0.125000
vt 0.750000 0.125000
vt 0.350000 0.200000
vt 0.200000 0.800000
vt 0.200000 0.200000
vt 0.200000 0.200000
vt 0.350000 0.800000
vt 0.200001 0.800000
vt 0.500000 0.725000
vt 0.500000 0.275000
vt 0.612500 0.575000
vt 0.000100 0.999900
vt 0.999900 0.000100
vt 0.999900 0.999900
vt 0.250000 0.000000
vt 1.000000 0.000000
vt 0.875000 0.125000
vt 1.000000 0.750000
vt 0.875000 0.875000
vt 0.875000 0.750000
vt 0.500000 0.200000
vt 0.650000 0.800000
vt 0.500000 0.800000
vt 0.350000 0.200000
vt 0.200000 0.800000
vt 0.200000 0.200000
vt 0.650000 0.200000
vt 0.800000 0.800000
vt 0.650000 0.800000
vt 0.500000 0.700000
vt 0.350000 0.800000
vt 0.000100 0.999900
vt 0.999900 0.000100
vt 0.999900 0.999900
vt 0.000100 0.000100
vt 0.999900 0.999900
vt 0.000100 0.999900
vt 0.387500 0.725000
vt 0.500000 0.275000
vt 0.500000 0.725000
vt 0.500000 0.200000
vt 0.350001 0.800000
vt 0.350000 0.200000
vt 0.387500 0.275000
vt 0.275000 0.725000
vt 0.275000 0.275000
vt 0.200000 0.200000
vt 0.350000 0.200000
vt 0.650000 0.800000
vt 1.000000 0.250000
vt 1.000000 0.375000
vt 0.875000 0.125000
vt 1.000000 0.875000
vt 0.750000 0.875000
vt 0.125000 0.875000
vt 0.500000 0.800000
vt 0.500000 0.200000
vt 1.000000 0.750000
vt 1.000000 0.000000
vt 0.875000 0.125000
vt 1.000000 0.125000
vt 0.875000 1.000000
vt 0.750000 1.000000
vt 0.875000 0.875000
vt 1.000000 1.000000
vt 0.125000 0.125000
vt 0.125000 0.125000
vt 0.125000 1.000000
vt 0.000000 1.000000
vt 1.000000 1.000000
vt 0.875000 0.875000
vt 0.800000 0.200000
vt 0.999900 0.999900
vt 0.800000 0.200000
vt 0.800000 0.800000
vt 0.725000 0.275000
vt 0.000000 0.000000
vt 0.650000 0.200000
vt 0.650000 0.800000
vt 0.000100 0.999900
vt 0.000000 0.000000
vt 0.125000 0.125000
vt 0.875000 0.000000
vt 1.000000 0.000000
vt 0.125000 0.875000
vt 0.350000 0.800000
vt 0.350000 0.200000
vt 0.612500 0.275000
vt 0.612500 0.650000
vt 0.612500 0.725000
vt 0.000100 0.000100
vt 0.125000 0.875000
vt 0.000000 1.000000
vt 1.000000 0.875000
vt 0.000000 0.875000
vt 0.000000 0.750000
vt 0.125000 0.125000
vt 0.125000 0.000000
vt 0.650000 0.200000
vt 0.350000 0.800000
vt 0.800000 0.200000
vt 0.500000 0.200000
vt 0.500000 0.800000
vt 0.000100 0.000100
vt 0.999900 0.000100
vt 0.387500 0.275000
vt 0.387500 0.725000
vn -1.0000 0.0000 0.0000
vn 0.0000 0.0000 1.0000
vn 1.0000 0.0000 0.0000
vn 0.0000 1.0000 0.0000
vn 0.0000 0.0000 -1.0000
vn 0.0000 -1.0000 0.0000
s off
f 56/1/1 3/2/1 5/3/1
f 56/4/2 5/5/2 4/6/2
f 2/7/3 53/8/3 1/9/3
f 2/10/4 46/11/4 48/12/4
f 55/13/5 2/14/5 3/15/5
f 15/16/2 20/17/2 14/18/2
f 37/19/3 8/20/3 7/21/3
f 51/22/3 10/23/3 52/24/3
f 49/25/6 51/26/6 14/27/6
f 35/28/4 5/29/4 47/30/4
f 23/31/2 21/32/2 29/33/2
f 20/34/3 13/35/3 19/36/3
f 15/37/6 13/38/6 12/39/6
f 41/40/6 19/41/6 18/42/6
f 17/43/5 18/44/5 13/45/5
f 11/46/4 59/47/4 10/48/4
f 49/49/5 45/50/5 35/51/5
f 27/52/5 22/53/5 26/54/5
f 26/55/1 21/56/1 24/57/1
f 29/58/1 45/59/1 49/60/1
f 43/61/1 28/62/1 27/63/1
f 17/64/1 14/65/1 16/66/1
f 25/67/4 24/68/4 23/69/4
f 58/70/6 57/71/6 7/72/6
f 62/73/2 64/74/2 61/75/2
f 41/76/2 52/77/2 30/78/2
f 40/79/2 32/80/2 31/81/2
f 34/82/3 63/83/3 33/84/3
f 61/85/4 34/86/4 30/87/4
f 33/88/6 62/89/6 32/90/6
f 31/91/1 62/92/1 61/85/1
f 53/93/4 55/94/4 56/95/4
f 58/96/3 60/97/3 57/98/3
f 59/99/5 9/100/5 10/101/5
f 21/102/6 28/103/6 29/104/6
f 57/105/2 11/106/2 6/107/2
f 56/1/1 55/13/1 3/2/1
f 4/6/2 1/108/2 53/109/2
f 53/109/2 56/4/2 4/6/2
f 2/7/3 54/110/3 53/8/3
f 36/111/4 37/112/4 3/113/4
f 37/112/4 38/114/4 5/29/4
f 3/113/4 37/112/4 5/29/4
f 4/115/4 35/28/4 1/116/4
f 35/28/4 45/50/4 1/116/4
f 48/12/4 36/111/4 3/113/4
f 2/10/4 1/116/4 45/50/4
f 48/12/4 3/113/4 2/10/4
f 2/10/4 45/50/4 46/11/4
f 55/13/5 54/117/5 2/14/5
f 15/16/2 12/118/2 20/17/2
f 37/19/3 36/119/3 8/20/3
f 51/22/3 47/120/3 6/121/3
f 47/120/3 38/122/3 6/121/3
f 38/122/3 37/19/3 7/21/3
f 38/122/3 7/21/3 6/121/3
f 39/123/3 40/124/3 9/125/3
f 40/124/3 52/24/3 10/23/3
f 9/125/3 40/124/3 10/23/3
f 36/119/3 48/126/3 9/125/3
f 48/126/3 39/123/3 9/125/3
f 9/125/3 8/20/3 36/119/3
f 51/22/3 6/121/3 11/127/3
f 51/22/3 11/127/3 10/23/3
f 20/128/6 19/41/6 49/25/6
f 19/41/6 42/129/6 50/130/6
f 49/25/6 19/41/6 50/130/6
f 52/131/6 41/40/6 16/132/6
f 41/40/6 18/42/6 16/132/6
f 52/131/6 16/132/6 14/27/6
f 14/27/6 20/128/6 49/25/6
f 51/26/6 52/131/6 14/27/6
f 4/115/4 5/29/4 35/28/4
f 5/29/4 38/114/4 47/30/4
f 23/31/2 24/133/2 21/32/2
f 20/34/3 12/118/3 13/35/3
f 15/37/6 17/134/6 13/38/6
f 41/40/6 42/129/6 19/41/6
f 16/135/5 18/44/5 17/43/5
f 18/44/5 19/136/5 13/45/5
f 11/46/4 60/137/4 59/47/4
f 47/138/5 51/26/5 35/51/5
f 51/26/5 49/49/5 35/51/5
f 26/54/5 25/139/5 27/52/5
f 27/52/5 28/140/5 22/53/5
f 26/55/1 22/141/1 21/56/1
f 50/142/1 43/61/1 25/143/1
f 43/61/1 27/63/1 25/143/1
f 44/144/1 46/145/1 28/62/1
f 46/145/1 45/59/1 28/62/1
f 29/58/1 28/62/1 45/59/1
f 49/60/1 50/142/1 25/143/1
f 49/60/1 25/143/1 23/146/1
f 49/60/1 23/146/1 29/58/1
f 43/61/1 44/144/1 28/62/1
f 17/64/1 15/147/1 14/65/1
f 25/67/4 26/148/4 24/68/4
f 6/149/6 7/72/6 57/71/6
f 7/72/6 8/150/6 58/70/6
f 8/150/6 9/151/6 58/70/6
f 62/73/2 63/152/2 64/74/2
f 33/153/2 32/80/2 46/154/2
f 32/80/2 39/155/2 48/126/2
f 46/154/2 32/80/2 48/126/2
f 44/156/2 43/157/2 33/153/2
f 43/157/2 50/142/2 34/158/2
f 34/158/2 50/142/2 42/159/2
f 34/158/2 33/153/2 43/157/2
f 33/153/2 46/154/2 44/156/2
f 40/79/2 31/81/2 30/78/2
f 52/77/2 40/79/2 30/78/2
f 30/78/2 34/158/2 41/76/2
f 34/158/2 42/159/2 41/76/2
f 40/79/2 39/155/2 32/80/2
f 34/82/3 64/160/3 63/83/3
f 61/85/4 64/161/4 34/86/4
f 33/88/6 63/162/6 62/89/6
f 61/85/1 30/163/1 31/91/1
f 31/91/1 32/164/1 62/92/1
f 53/93/4 54/165/4 55/94/4
f 58/96/3 59/166/3 60/97/3
f 59/99/5 58/167/5 9/100/5
f 21/102/6 22/53/6 28/103/6
f 57/105/2 60/168/2 11/106/2
