# Blender v2.79 (sub 0) OBJ File: ''
# www.blender.org
o Plane_Plane.001
v 0.000000 0.000000 0.000000
v -8.000000 0.000000 0.000000
v 0.000000 -8.000000 0.000000
v 8.000000 0.000000 0.000000
v 0.000000 8.000000 0.000000
v -8.000000 8.000000 0.000000
v -8.000000 -8.000000 0.000000
v 8.000000 -8.000000 0.000000
v 8.000000 8.000000 0.000000
v 8.000000 16.000000 0.000000
v 0.000000 16.000000 0.000000
v -8.000000 16.000000 0.000000
v -16.000000 8.000000 0.000000
v -16.000000 0.000000 0.000000
v -16.000000 -8.000000 0.000000
v -8.000000 -16.000000 0.000000
v 0.000000 -16.000000 0.000000
v 8.000000 -16.000000 0.000000
v 16.000000 -8.000000 0.000000
v 16.000000 0.000000 0.000000
v 16.000000 8.000000 0.000000
v -16.000000 16.000000 0.000000
v -16.000000 -16.000000 0.000000
v 16.000000 16.000000 0.000000
v 16.000000 -16.000000 0.000000
vt 1.000000 1.000000
vt -0.000000 0.000000
vt 1.000000 -0.000000
vt 1.000000 1.000000
vt -0.000000 0.000000
vt 1.000000 -0.000000
vt 1.000000 1.000000
vt -0.000000 0.000000
vt 1.000000 -0.000000
vt 1.000000 1.000000
vt -0.000000 0.000000
vt 1.000000 0.000000
vt 0.000000 1.000000
vt 1.000000 0.000000
vt 1.000000 1.000000
vt 0.000000 1.000000
vt 1.000000 0.000000
vt 1.000000 1.000000
vt 0.000000 1.000000
vt 1.000000 0.000000
vt 1.000000 1.000000
vt 0.000000 1.000000
vt 1.000000 0.000000
vt 1.000000 1.000000
vt 0.000000 0.000000
vt 1.000000 1.000000
vt 0.000000 1.000000
vt 0.000000 0.000000
vt 1.000000 1.000000
vt 0.000000 1.000000
vt 0.000000 0.000000
vt 1.000000 1.000000
vt 0.000000 1.000000
vt 0.000000 0.000000
vt 1.000000 1.000000
vt 0.000000 1.000000
vt 1.000000 -0.000000
vt 0.000000 1.000000
vt -0.000000 0.000000
vt 1.000000 0.000000
vt 0.000000 1.000000
vt 0.000000 0.000000
vt 1.000000 0.000000
vt 0.000000 1.000000
vt 0.000000 0.000000
vt 1.000000 0.000000
vt 0.000000 1.000000
vt 0.000000 0.000000
vt 0.000000 1.000000
vt 0.000000 1.000000
vt 0.000000 1.000000
vt 0.000000 1.000000
vt 0.000000 0.000000
vt 0.000000 0.000000
vt 0.000000 0.000000
vt 0.000000 0.000000
vt 1.000000 0.000000
vt 1.000000 0.000000
vt 1.000000 0.000000
vt 1.000000 0.000000
vt 1.000000 1.000000
vt 1.000000 1.000000
vt 1.000000 1.000000
vt 1.000000 1.000000
vn 0.0000 0.0000 1.0000
s off
f 5/1/1 2/2/1 1/3/1
f 6/4/1 14/5/1 2/6/1
f 11/7/1 6/8/1 5/9/1
f 12/10/1 13/11/1 6/12/1
f 2/13/1 3/14/1 1/15/1
f 7/16/1 17/17/1 3/18/1
f 14/19/1 7/20/1 2/21/1
f 15/22/1 16/23/1 7/24/1
f 3/25/1 4/26/1 1/27/1
f 8/28/1 20/29/1 4/30/1
f 17/31/1 8/32/1 3/33/1
f 18/34/1 19/35/1 8/36/1
f 4/37/1 5/38/1 1/39/1
f 9/40/1 11/41/1 5/42/1
f 20/43/1 9/44/1 4/45/1
f 21/46/1 10/47/1 9/48/1
f 5/1/1 6/49/1 2/2/1
f 6/4/1 13/50/1 14/5/1
f 11/7/1 12/51/1 6/8/1
f 12/10/1 22/52/1 13/11/1
f 2/13/1 7/53/1 3/14/1
f 7/16/1 16/54/1 17/17/1
f 14/19/1 15/55/1 7/20/1
f 15/22/1 23/56/1 16/23/1
f 3/25/1 8/57/1 4/26/1
f 8/28/1 19/58/1 20/29/1
f 17/31/1 18/59/1 8/32/1
f 18/34/1 25/60/1 19/35/1
f 4/37/1 9/61/1 5/38/1
f 9/40/1 10/62/1 11/41/1
f 20/43/1 21/63/1 9/44/1
f 21/46/1 24/64/1 10/47/1
