# Blender v2.79 (sub 0) OBJ File: 'column.blend'
# www.blender.org
mtllib column.mtl
o Cube
v 0.400000 0.400000 0.000000
v 0.400000 0.500000 0.100000
v 0.500000 0.400000 0.100000
v 0.400000 0.500000 0.900000
v 0.400000 0.400000 1.000000
v 0.500000 0.400000 0.900000
v 0.400000 -0.400000 0.000000
v 0.500000 -0.400000 0.100000
v 0.400000 -0.500000 0.100000
v 0.400000 -0.400000 1.000000
v 0.400000 -0.500000 0.900000
v 0.500000 -0.400000 0.900000
v -0.400000 0.400000 0.000000
v -0.500000 0.400000 0.100000
v -0.400000 0.500000 0.100000
v -0.400000 0.400000 1.000000
v -0.400000 0.500000 0.900000
v -0.500000 0.400000 0.900000
v -0.400000 -0.400000 0.000000
v -0.400000 -0.500000 0.100000
v -0.500000 -0.400000 0.100000
v -0.400000 -0.400000 1.000000
v -0.500000 -0.400000 0.900000
v -0.400000 -0.500000 0.900000
vt 0.275039 0.025082
vt 0.475004 0.225048
vt 0.275039 0.225048
vt 0.025082 0.475004
vt 0.225048 0.275039
vt 0.225048 0.475004
vt 0.475004 0.025082
vt 0.475004 0.774952
vt 0.275039 0.974918
vt 0.275039 0.774952
vt 0.724961 0.275039
vt 0.524996 0.475004
vt 0.524996 0.275039
vt 0.475004 0.724961
vt 0.275039 0.524996
vt 0.475004 0.524996
vt 0.475004 0.275039
vt 0.475004 0.250043
vt 0.500000 0.275039
vt 0.475004 0.000087
vt 0.500000 0.025082
vt 0.475004 0.475004
vt 0.500000 0.475004
vt 0.475004 0.500000
vt 0.475004 0.749957
vt 0.500000 0.774953
vt 0.275039 0.275039
vt 0.250043 0.275039
vt 0.275039 0.250043
vt 0.275039 0.999913
vt 0.250043 0.974918
vt 0.275039 0.475004
vt 0.275039 0.500000
vt 0.250043 0.475004
vt 0.250043 0.774952
vt 0.275039 0.749957
vt 0.500000 0.225048
vt 0.500000 0.974918
vt 0.475004 0.974918
vt 0.500000 0.724961
vt 0.025082 0.500000
vt 0.250043 0.025082
vt 0.025082 0.275039
vt 0.724961 0.475004
vt 0.275039 0.724961
vt 0.500000 0.524996
vt 0.225048 0.500000
vt 0.250043 0.225048
vt 0.475004 0.999913
vn 0.0000 1.0000 0.0000
vn -1.0000 0.0000 0.0000
vn 0.0000 0.0000 1.0000
vn 1.0000 0.0000 0.0000
vn 0.0000 -1.0000 0.0000
vn 0.5774 0.5774 -0.5774
vn 0.5774 0.5774 0.5773
vn 0.5774 -0.5774 -0.5774
vn 0.5774 -0.5774 0.5773
vn -0.5774 0.5774 -0.5774
vn -0.5774 0.5774 0.5773
vn -0.5774 -0.5774 -0.5774
vn -0.5774 -0.5774 0.5773
vn 0.7071 0.0000 -0.7071
vn 0.7071 0.7071 0.0000
vn 0.7071 0.0000 0.7071
vn 0.7071 -0.7071 0.0000
vn 0.0000 -0.7071 -0.7071
vn 0.0000 -0.7071 0.7071
vn -0.7071 -0.7071 0.0000
vn -0.7071 0.0000 -0.7071
vn -0.7071 0.0000 0.7071
vn -0.7071 0.7071 0.0000
vn 0.0000 0.7071 -0.7071
vn 0.0000 0.7071 0.7071
vn 0.0000 0.0000 -1.0000
usemtl Material.001
s off
f 17/1/1 2/2/1 15/3/1
f 23/4/2 14/5/2 21/6/2
f 17/1/1 4/7/1 2/2/1
f 10/8/3 16/9/3 22/10/3
f 6/11/4 8/12/4 3/13/4
f 11/14/5 20/15/5 9/16/5
f 1/17/6 2/18/6 3/19/6
f 4/7/7 5/20/7 6/21/7
f 7/22/8 8/23/8 9/24/8
f 10/8/9 11/25/9 12/26/9
f 13/27/10 14/28/10 15/29/10
f 16/9/11 17/30/11 18/31/11
f 19/32/12 20/33/12 21/34/12
f 22/10/13 23/35/13 24/36/13
f 1/17/14 8/12/14 7/22/14
f 4/7/15 3/37/15 2/2/15
f 10/8/16 6/38/16 5/39/16
f 9/16/17 12/40/17 11/14/17
f 7/22/18 20/15/18 19/32/18
f 22/10/19 11/14/19 10/8/19
f 21/6/20 24/41/20 23/4/20
f 19/32/21 14/5/21 13/27/21
f 16/9/22 23/35/22 22/10/22
f 15/3/23 18/42/23 17/1/23
f 13/27/24 2/2/24 1/17/24
f 5/39/25 17/30/25 16/9/25
f 19/32/26 1/17/26 7/22/26
f 23/4/2 18/43/2 14/5/2
f 10/8/3 5/39/3 16/9/3
f 6/11/4 12/44/4 8/12/4
f 11/14/5 24/45/5 20/15/5
f 1/17/14 3/13/14 8/12/14
f 4/7/15 6/21/15 3/37/15
f 10/8/16 12/26/16 6/38/16
f 9/16/17 8/46/17 12/40/17
f 7/22/18 9/16/18 20/15/18
f 22/10/19 24/45/19 11/14/19
f 21/6/20 20/47/20 24/41/20
f 19/32/21 21/6/21 14/5/21
f 16/9/22 18/31/22 23/35/22
f 15/3/23 14/48/23 18/42/23
f 13/27/24 15/3/24 2/2/24
f 5/39/25 4/49/25 17/30/25
f 19/32/26 13/27/26 1/17/26
