# Blender v2.79 (sub 0) OBJ File: 'column.blend'
# www.blender.org
mtllib column.mtl
o Grid
v -0.400000 -0.100000 0.000000
v -0.400000 0.000000 0.005523
v -0.400000 0.100000 0.000000
v -0.300000 -0.200000 0.013311
v -0.300000 -0.100000 0.043829
v -0.300000 0.000000 0.087462
v -0.300000 0.100000 0.043829
v -0.300000 0.200000 0.013311
v -0.200000 -0.300000 0.013311
v -0.200000 -0.200000 0.108364
v -0.200000 -0.100000 0.163212
v -0.200000 0.000000 0.220807
v -0.200000 0.100000 0.163212
v -0.200000 0.200000 0.108364
v -0.200000 0.300000 0.013311
v -0.100000 -0.400000 0.000000
v -0.100000 -0.300000 0.043829
v -0.100000 -0.200000 0.163212
v -0.100000 -0.100000 0.298604
v -0.100000 0.000000 0.345130
v -0.100000 0.100000 0.298604
v -0.100000 0.200000 0.163212
v -0.100000 0.300000 0.043829
v -0.100000 0.400000 0.000000
v 0.000000 -0.400000 0.005523
v 0.000000 -0.300000 0.087462
v 0.000000 -0.200000 0.220807
v 0.000000 -0.100000 0.345130
v 0.000000 0.000000 0.400000
v 0.000000 0.100000 0.345130
v 0.000000 0.200000 0.220807
v 0.000000 0.300000 0.087462
v 0.000000 0.400000 0.005523
v 0.100000 -0.400000 0.000000
v 0.100000 -0.300000 0.043829
v 0.100000 -0.200000 0.163212
v 0.100000 -0.100000 0.298604
v 0.100000 0.000000 0.345130
v 0.100000 0.100000 0.298604
v 0.100000 0.200000 0.163212
v 0.100000 0.300000 0.043829
v 0.100000 0.400000 0.000000
v 0.200000 -0.300000 0.013311
v 0.200000 -0.200000 0.108364
v 0.200000 -0.100000 0.163212
v 0.200000 0.000000 0.220807
v 0.200000 0.100000 0.163212
v 0.200000 0.200000 0.108364
v 0.200000 0.300000 0.013311
v 0.300000 -0.200000 0.013311
v 0.300000 -0.100000 0.043829
v 0.300000 0.000000 0.087462
v 0.300000 0.100000 0.043829
v 0.300000 0.200000 0.013311
v 0.400000 -0.100000 0.000000
v 0.400000 0.000000 0.005523
v 0.400000 0.100000 0.000000
v 0.000000 0.000000 0.000000
vt 0.825531 0.881352
vt 0.940175 0.825531
vt 0.940175 0.881352
vt 0.825531 0.822528
vt 0.881352 0.707884
vt 0.881352 0.822528
vt 0.351940 0.472590
vt 0.237296 0.587234
vt 0.351940 0.587234
vt 0.704881 0.002002
vt 0.590237 0.116646
vt 0.704881 0.116646
vt 0.119649 0.822528
vt 0.234293 0.707884
vt 0.234293 0.822528
vt 0.590237 0.704881
vt 0.704881 0.590237
vt 0.704881 0.704881
vt 0.350939 0.471589
vt 0.236295 0.586233
vt 0.236295 0.471589
vt 0.704881 0.472590
vt 0.590237 0.587234
vt 0.704881 0.587234
vt 0.116646 0.590237
vt 0.116646 0.704881
vt 0.002002 0.704881
vt 0.822528 0.234293
vt 0.822528 0.119649
vt 0.707884 0.234293
vt 0.590237 0.469587
vt 0.704881 0.354943
vt 0.704881 0.469587
vt 0.704881 0.237296
vt 0.590237 0.351940
vt 0.704881 0.351940
vt 0.884355 0.822528
vt 0.940175 0.707884
vt 0.940175 0.822528
vt 0.703880 0.001001
vt 0.589236 0.115645
vt 0.589236 0.001001
vt 0.001001 0.589236
vt 0.001001 0.703880
vt 0.115645 0.589236
vt 0.822528 0.002002
vt 0.707884 0.116646
vt 0.822528 0.116646
vt 0.002002 0.822528
vt 0.116646 0.707884
vt 0.116646 0.822528
vt 0.587234 0.590237
vt 0.587234 0.704881
vt 0.472590 0.704881
vt 0.351940 0.590237
vt 0.237296 0.704881
vt 0.351940 0.704881
vt 0.825531 0.940175
vt 0.940175 0.884355
vt 0.940175 0.940175
vt 0.704881 0.825531
vt 0.590237 0.940175
vt 0.704881 0.940175
vt 0.940175 0.472590
vt 0.940175 0.587234
vt 0.825531 0.587234
vt 0.234293 0.825531
vt 0.119649 0.940175
vt 0.234293 0.940175
vt 0.469587 0.707884
vt 0.354943 0.822528
vt 0.469587 0.822528
vt 0.822528 0.472590
vt 0.707884 0.587234
vt 0.822528 0.587234
vt 0.472590 0.587234
vt 0.587234 0.472590
vt 0.587234 0.587234
vt 0.587234 0.469587
vt 0.587234 0.354943
vt 0.472590 0.469587
vt 0.472590 0.351940
vt 0.587234 0.237296
vt 0.587234 0.351940
vt 0.940175 0.590237
vt 0.825531 0.704881
vt 0.940175 0.704881
vt 0.469587 0.825531
vt 0.469587 0.940175
vt 0.354943 0.940175
vt 0.002002 0.940175
vt 0.116646 0.940175
vt 0.116646 0.825531
vt 0.707884 0.469587
vt 0.822528 0.354943
vt 0.822528 0.469587
vt 0.471589 0.586233
vt 0.586233 0.471589
vt 0.471589 0.471589
vt 0.825531 0.234293
vt 0.940175 0.234293
vt 0.940175 0.119649
vt 0.469587 0.587234
vt 0.469587 0.472590
vt 0.354943 0.587234
vt 0.707884 0.940175
vt 0.822528 0.825531
vt 0.822528 0.940175
vt 0.825531 0.469587
vt 0.940175 0.354943
vt 0.940175 0.469587
vt 0.940175 0.116646
vt 0.940175 0.002002
vt 0.825531 0.116646
vt 0.822528 0.351940
vt 0.822528 0.237296
vt 0.707884 0.351940
vt 0.471589 0.468586
vt 0.471589 0.353942
vt 0.586233 0.353942
vt 0.353942 0.586233
vt 0.353942 0.471589
vt 0.468586 0.471589
vt 0.587234 0.825531
vt 0.472590 0.940175
vt 0.587234 0.940175
vt 0.707884 0.822528
vt 0.822528 0.707884
vt 0.822528 0.822528
vt 0.237296 0.822528
vt 0.351940 0.707884
vt 0.351940 0.822528
vt 0.471589 0.350939
vt 0.586233 0.236295
vt 0.471589 0.236295
vt 0.706883 0.939174
vt 0.821527 0.824530
vt 0.706883 0.824530
vt 0.237296 0.940175
vt 0.351940 0.940175
vt 0.351940 0.825531
vt 0.707884 0.704881
vt 0.822528 0.704881
vt 0.822528 0.590237
vt 0.589236 0.939174
vt 0.589236 0.824530
vt 0.703880 0.824530
vt 0.824530 0.703880
vt 0.824530 0.589236
vt 0.939174 0.589236
vt 0.471589 0.939174
vt 0.471589 0.824530
vt 0.586233 0.824530
vt 0.940175 0.351940
vt 0.825531 0.351940
vt 0.940175 0.237296
vt 0.704881 0.822528
vt 0.590237 0.822528
vt 0.704881 0.707884
vt 0.824530 0.586233
vt 0.939174 0.471589
vt 0.824530 0.471589
vt 0.353942 0.939174
vt 0.468586 0.824530
vt 0.353942 0.824530
vt 0.939174 0.353942
vt 0.824530 0.353942
vt 0.824530 0.468586
vt 0.236295 0.939174
vt 0.236295 0.824530
vt 0.350939 0.824530
vt 0.824530 0.350939
vt 0.939174 0.236295
vt 0.824530 0.236295
vt 0.824530 0.118648
vt 0.824530 0.233292
vt 0.939174 0.118648
vt 0.472590 0.822528
vt 0.587234 0.822528
vt 0.587234 0.707884
vt 0.118648 0.939174
vt 0.118648 0.824530
vt 0.233292 0.824530
vt 0.115645 0.824530
vt 0.001001 0.939174
vt 0.001001 0.824530
vt 0.824530 0.001001
vt 0.939174 0.001001
vt 0.824530 0.115645
vt 0.821527 0.706883
vt 0.706883 0.706883
vt 0.706883 0.821527
vt 0.706883 0.703880
vt 0.706883 0.589236
vt 0.821527 0.589236
vt 0.589236 0.821527
vt 0.703880 0.706883
vt 0.589236 0.706883
vt 0.471589 0.821527
vt 0.471589 0.706883
vt 0.586233 0.706883
vt 0.706883 0.586233
vt 0.706883 0.471589
vt 0.821527 0.471589
vt 0.353942 0.821527
vt 0.353942 0.706883
vt 0.468586 0.706883
vt 0.821527 0.353942
vt 0.706883 0.353942
vt 0.706883 0.468586
vt 0.706883 0.236295
vt 0.821527 0.236295
vt 0.706883 0.350939
vt 0.350939 0.706883
vt 0.236295 0.706883
vt 0.236295 0.821527
vt 0.824530 0.939174
vt 0.824530 0.883354
vt 0.939174 0.883354
vt 0.233292 0.706883
vt 0.118648 0.706883
vt 0.118648 0.821527
vt 0.706883 0.118648
vt 0.821527 0.118648
vt 0.706883 0.233292
vt 0.821527 0.001001
vt 0.706883 0.001001
vt 0.706883 0.115645
vt 0.001001 0.821527
vt 0.001001 0.706883
vt 0.115645 0.706883
vt 0.469587 0.590237
vt 0.354943 0.704881
vt 0.469587 0.704881
vt 0.234293 0.590237
vt 0.234293 0.704881
vt 0.119649 0.704881
vt 0.883354 0.821527
vt 0.883354 0.706883
vt 0.939174 0.706883
vt 0.703880 0.589236
vt 0.589236 0.589236
vt 0.589236 0.703880
vt 0.703880 0.471589
vt 0.589236 0.471589
vt 0.589236 0.586233
vt 0.471589 0.703880
vt 0.586233 0.589236
vt 0.471589 0.589236
vt 0.353942 0.589236
vt 0.468586 0.589236
vt 0.353942 0.703880
vt 0.589236 0.468586
vt 0.589236 0.353942
vt 0.703880 0.353942
vt 0.704881 0.119649
vt 0.704881 0.234293
vt 0.590237 0.234293
vt 0.589236 0.350939
vt 0.589236 0.236295
vt 0.703880 0.236295
vt 0.236295 0.703880
vt 0.236295 0.589236
vt 0.350939 0.589236
vt 0.233292 0.589236
vt 0.118648 0.589236
vt 0.118648 0.703880
vt 0.703880 0.118648
vt 0.589236 0.118648
vt 0.589236 0.233292
vt 0.939174 0.824530
vt 0.824530 0.824530
vt 0.824530 0.880351
vt 0.880351 0.706883
vt 0.824530 0.706883
vt 0.824530 0.821527
vt 0.587234 0.001001
vt 0.471589 0.001001
vt 0.471589 0.234293
vt 0.587234 0.234293
vt 0.057823 0.998999
vt 0.002002 0.998999
vt 0.057823 0.943178
vt 0.234293 0.587234
vt 0.234293 0.471589
vt 0.001001 0.471589
vt 0.001001 0.587234
vt 0.351940 0.234293
vt 0.351940 0.001001
vt 0.236295 0.001001
vt 0.236295 0.234293
vt 0.236295 0.351940
vt 0.469587 0.351940
vt 0.469587 0.236295
vt 0.236295 0.236295
vt 0.998999 0.057823
vt 0.943178 0.057823
vt 0.998999 0.002002
vt 0.942177 0.001001
vt 0.997998 0.001001
vt 0.942177 0.056822
vt 0.001001 0.942177
vt 0.056822 0.942177
vt 0.001001 0.997998
vt 0.354943 0.234293
vt 0.469587 0.234293
vt 0.469587 0.002002
vt 0.234293 0.237296
vt 0.002002 0.469587
vt 0.234293 0.469587
vt 0.469587 0.354943
vt 0.469587 0.469587
vt 0.237296 0.469587
vt 0.234293 0.002002
vt 0.002002 0.234293
vt 0.234293 0.234293
vt 0.236295 0.468586
vt 0.236295 0.353942
vt 0.468586 0.353942
vt 0.001001 0.233292
vt 0.233292 0.001001
vt 0.001001 0.001001
vt 0.468586 0.001001
vt 0.353942 0.001001
vt 0.353942 0.233292
vt 0.001001 0.468586
vt 0.233292 0.236295
vt 0.001001 0.236295
vn -0.4009 -0.0505 0.9147
vn -0.4009 0.0505 0.9147
vn -0.6727 -0.2160 0.7077
vn -0.7382 -0.2698 0.6183
vn -0.7382 0.2698 0.6183
vn -0.6727 0.2160 0.7077
vn -0.2160 -0.6727 0.7077
vn -0.4334 -0.4334 0.7902
vn -0.7611 -0.3238 0.5621
vn -0.7611 0.3238 0.5621
vn -0.4334 0.4334 0.7902
vn -0.2160 0.6727 0.7077
vn -0.0505 -0.4009 0.9147
vn -0.2698 -0.7382 0.6183
vn -0.3238 -0.7611 0.5621
vn -0.3887 -0.3887 0.8354
vn -0.3887 0.3887 0.8354
vn -0.3238 0.7611 0.5621
vn -0.2698 0.7382 0.6183
vn -0.0505 0.4009 0.9147
vn 0.3198 -0.6005 0.7329
vn 0.3266 -0.7562 0.5671
vn 0.2799 -0.7481 0.6017
vn 0.4335 -0.4335 0.7900
vn 0.4335 0.4335 0.7900
vn 0.2799 0.7481 0.6017
vn 0.3266 0.7562 0.5671
vn 0.3198 0.6005 0.7329
vn 0.2692 -0.3866 0.8821
vn 0.3322 -0.7231 0.6057
vn 0.6268 -0.6268 0.4629
vn 0.7481 -0.2799 0.6017
vn 0.7481 0.2799 0.6017
vn 0.6268 0.6268 0.4629
vn 0.3322 0.7231 0.6057
vn 0.2692 0.3866 0.8821
vn 0.5673 -0.5673 0.5969
vn 0.7231 -0.3322 0.6057
vn 0.7562 -0.3266 0.5671
vn 0.7562 0.3266 0.5671
vn 0.7231 0.3322 0.6057
vn 0.5673 0.5673 0.5969
vn 0.3866 -0.2692 0.8821
vn 0.6005 -0.3198 0.7329
vn 0.6005 0.3198 0.7329
vn 0.3866 0.2692 0.8821
vn -0.3866 -0.2692 0.8821
vn -0.6005 -0.3198 0.7329
vn -0.6005 0.3198 0.7329
vn -0.3866 0.2692 0.8821
vn -0.5673 -0.5673 0.5969
vn -0.7231 -0.3322 0.6057
vn -0.7562 -0.3266 0.5671
vn -0.7562 0.3266 0.5671
vn -0.7231 0.3322 0.6057
vn -0.5673 0.5673 0.5969
vn -0.2692 -0.3866 0.8821
vn -0.3322 -0.7231 0.6057
vn -0.6268 -0.6268 0.4629
vn -0.7481 -0.2799 0.6017
vn -0.7481 0.2799 0.6017
vn -0.6268 0.6268 0.4629
vn -0.3322 0.7231 0.6057
vn -0.2692 0.3866 0.8821
vn -0.3198 -0.6005 0.7329
vn -0.3266 -0.7562 0.5671
vn -0.2799 -0.7481 0.6017
vn -0.4335 -0.4335 0.7900
vn -0.4335 0.4335 0.7900
vn -0.2799 0.7481 0.6017
vn -0.3266 0.7562 0.5671
vn -0.3198 0.6005 0.7329
vn 0.0505 -0.4009 0.9147
vn 0.2698 -0.7382 0.6183
vn 0.3238 -0.7611 0.5621
vn 0.3887 -0.3887 0.8354
vn 0.3887 0.3887 0.8354
vn 0.3238 0.7611 0.5621
vn 0.2698 0.7382 0.6183
vn 0.0505 0.4009 0.9147
vn 0.2160 -0.6727 0.7077
vn 0.4334 -0.4334 0.7902
vn 0.7611 -0.3238 0.5621
vn 0.7611 0.3238 0.5621
vn 0.4334 0.4334 0.7902
vn 0.2160 0.6727 0.7077
vn 0.6727 -0.2160 0.7077
vn 0.7382 -0.2698 0.6183
vn 0.7382 0.2698 0.6183
vn 0.6727 0.2160 0.7077
vn 0.4009 -0.0505 0.9147
vn 0.4009 0.0505 0.9147
vn 0.7071 0.7071 0.0000
vn 1.0000 0.0000 0.0000
vn 0.7071 -0.7071 -0.0000
vn -0.7071 -0.7071 0.0000
vn -0.7071 0.7071 0.0000
vn 0.0000 1.0000 0.0000
vn -1.0000 0.0000 0.0000
vn 0.0000 -1.0000 0.0000
vn 0.0000 0.0000 -1.0000
usemtl Material
s off
f 5/1/1 2/2/1 1/3/1
f 2/4/2 7/5/2 3/6/2
f 10/7/3 5/8/3 4/9/3
f 11/10/4 6/11/4 5/12/4
f 6/13/5 13/14/5 7/15/5
f 7/16/6 14/17/6 8/18/6
f 17/19/7 10/20/7 9/21/7
f 18/22/8 11/23/8 10/24/8
f 19/25/9 12/26/9 11/27/9
f 12/28/10 21/29/10 13/30/10
f 13/31/11 22/32/11 14/33/11
f 14/34/12 23/35/12 15/36/12
f 25/37/13 17/38/13 16/39/13
f 26/40/14 18/41/14 17/42/14
f 27/43/15 19/44/15 18/45/15
f 28/46/16 20/47/16 19/48/16
f 20/49/17 30/50/17 21/51/17
f 21/52/18 31/53/18 22/54/18
f 22/55/19 32/56/19 23/57/19
f 23/58/20 33/59/20 24/60/20
f 25/61/21 35/62/21 26/63/21
f 26/64/22 36/65/22 27/66/22
f 27/67/23 37/68/23 28/69/23
f 28/70/24 38/71/24 29/72/24
f 38/73/25 30/74/25 29/75/25
f 39/76/26 31/77/26 30/78/26
f 40/79/27 32/80/27 31/81/27
f 41/82/28 33/83/28 32/84/28
f 34/85/29 43/86/29 35/87/29
f 35/88/30 44/89/30 36/90/30
f 36/91/31 45/92/31 37/93/31
f 37/94/32 46/95/32 38/96/32
f 46/97/33 39/98/33 38/99/33
f 47/100/34 40/101/34 39/102/34
f 48/103/35 41/104/35 40/105/35
f 49/106/36 42/107/36 41/108/36
f 43/109/37 50/110/37 44/111/37
f 44/112/38 51/113/38 45/114/38
f 45/115/39 52/116/39 46/117/39
f 52/118/40 47/119/40 46/120/40
f 53/121/41 48/122/41 47/123/41
f 54/124/42 49/125/42 48/126/42
f 50/127/43 55/128/43 51/129/43
f 51/130/44 56/131/44 52/132/44
f 56/133/45 53/134/45 52/135/45
f 57/136/46 54/137/46 53/138/46
f 4/139/47 5/140/47 1/141/47
f 5/142/48 6/143/48 2/144/48
f 2/145/49 6/146/49 7/147/49
f 3/148/50 7/149/50 8/150/50
f 9/151/51 10/152/51 4/153/51
f 10/154/52 11/155/52 5/156/52
f 11/157/53 12/158/53 6/159/53
f 6/160/54 12/161/54 13/162/54
f 7/163/55 13/164/55 14/165/55
f 8/166/56 14/167/56 15/168/56
f 16/169/57 17/170/57 9/171/57
f 17/172/58 18/173/58 10/174/58
f 18/175/59 19/176/59 11/177/59
f 19/178/60 20/179/60 12/180/60
f 12/181/61 20/182/61 21/183/61
f 13/184/62 21/185/62 22/186/62
f 14/187/63 22/188/63 23/189/63
f 15/190/64 23/191/64 24/192/64
f 25/193/65 26/194/65 17/195/65
f 26/196/66 27/197/66 18/198/66
f 27/199/67 28/200/67 19/201/67
f 28/202/68 29/203/68 20/204/68
f 20/205/69 29/206/69 30/207/69
f 21/208/70 30/209/70 31/210/70
f 22/211/71 31/212/71 32/213/71
f 23/214/72 32/215/72 33/216/72
f 25/217/73 34/218/73 35/219/73
f 26/220/74 35/221/74 36/222/74
f 27/223/75 36/224/75 37/225/75
f 28/226/76 37/227/76 38/228/76
f 38/229/77 39/230/77 30/231/77
f 39/232/78 40/233/78 31/234/78
f 40/235/79 41/236/79 32/237/79
f 41/238/80 42/239/80 33/240/80
f 35/241/81 43/242/81 44/243/81
f 36/244/82 44/245/82 45/246/82
f 37/247/83 45/248/83 46/249/83
f 46/250/84 47/251/84 39/252/84
f 47/253/85 48/254/85 40/255/85
f 48/256/86 49/257/86 41/258/86
f 44/259/87 50/260/87 51/261/87
f 45/262/88 51/263/88 52/264/88
f 52/265/89 53/266/89 47/267/89
f 53/268/90 54/269/90 48/270/90
f 51/271/91 55/272/91 56/273/91
f 56/274/92 57/275/92 53/276/92
f 42/277/93 49/278/93 54/279/93 57/280/93
f 56/281/94 55/282/94 57/283/94
f 43/284/95 34/285/95 55/286/95 50/287/95
f 1/288/96 16/289/96 9/290/96 4/291/96
f 8/292/97 15/293/97 24/294/97 3/295/97
f 33/296/98 42/297/98 24/298/98
f 2/299/99 3/300/99 1/301/99
f 25/302/100 16/303/100 34/304/100
f 57/305/101 55/306/101 58/307/101
f 55/308/101 34/309/101 58/310/101
f 34/311/101 16/312/101 58/313/101
f 16/314/101 1/315/101 58/316/101
f 1/317/101 3/318/101 58/319/101
f 3/320/101 24/321/101 58/322/101
f 24/323/101 42/324/101 58/325/101
f 42/326/101 57/327/101 58/328/101
