# Blender v2.79 (sub 0) OBJ File: 'ElectricFence.blend'
# www.blender.org
mtllib OpenFence.mtl
o GateOpen_Cube
v 0.384530 0.384530 -0.084530
v 0.500000 0.500000 -0.200000
v 0.384530 0.384530 0.884530
v 0.500000 0.500000 1.000000
v 0.384530 -0.384530 -0.084530
v 0.500000 -0.500000 -0.200000
v 0.384530 -0.384530 0.884530
v 0.500000 -0.500000 1.000000
v -0.384530 0.384530 -0.084530
v -0.500000 0.500000 -0.200000
v -0.384530 0.384530 0.884530
v -0.500000 0.500000 1.000000
v -0.384530 -0.384530 -0.084530
v -0.500000 -0.500000 -0.200000
v -0.384530 -0.384530 0.884530
v -0.500000 -0.500000 1.000000
v 0.442265 0.342265 -0.042265
v 0.442265 0.342265 0.842265
v 0.442265 -0.342265 0.842265
v 0.442265 -0.342265 -0.042265
v 0.342265 -0.442265 -0.042265
v 0.342265 -0.442265 0.842265
v -0.342265 -0.442265 0.842265
v -0.342265 -0.442265 -0.042265
v -0.442265 -0.342265 -0.042265
v -0.442265 -0.342265 0.842265
v -0.442265 0.342265 0.842265
v -0.442265 0.342265 -0.042265
v -0.342265 0.442265 -0.042265
v -0.342265 0.442265 0.842265
v 0.342265 0.442265 0.842265
v 0.342265 0.442265 -0.042265
v 0.342265 -0.342265 -0.142265
v -0.342265 -0.342265 -0.142265
v -0.342265 0.342265 -0.142265
v 0.342265 0.342265 -0.142265
vt 0.595707 0.696490
vt 0.618317 1.000000
vt 0.595707 0.986159
vt 0.888141 0.444636
vt 0.934608 0.785960
vt 0.888141 0.734304
vt 0.641971 0.696490
vt 0.665626 1.000000
vt 0.641971 0.986159
vt 0.542486 0.444636
vt 0.595706 0.785960
vt 0.542486 0.734304
vt 0.628768 0.682649
vt 0.869054 0.663742
vt 0.855080 0.682649
vt 0.330610 0.785960
vt 0.361020 0.734304
vt 0.688236 0.986159
vt 0.665626 0.682649
vt 0.688236 0.696490
vt 0.907269 0.341324
vt 0.860802 0.000000
vt 0.907269 0.051656
vt 0.953735 0.013841
vt 0.977390 0.317351
vt 0.953735 0.303510
vt 0.542486 0.051656
vt 0.595707 0.392980
vt 0.542486 0.341324
vt 0.888141 0.649901
vt 0.869054 0.411887
vt 0.888141 0.425728
vt 0.330610 0.392980
vt 0.361020 0.341324
vt 1.000000 0.303510
vt 0.977390 0.000000
vt 1.000000 0.013841
vt 0.953735 0.341324
vt 0.907269 0.000000
vt 0.953735 0.051656
vt 0.934608 0.406821
vt 0.958263 0.710331
vt 0.934608 0.696490
vt 0.211875 0.379139
vt 0.265096 0.720463
vt 0.211875 0.668808
vt 0.855080 0.392980
vt 0.614794 0.411887
vt 0.628768 0.392980
vt 0.000000 0.720463
vt 0.030409 0.668808
vt 0.980873 0.696490
vt 0.958263 0.392980
vt 0.980873 0.406821
vt 0.265096 0.379139
vt 0.311562 0.720463
vt 0.265096 0.668808
vt 0.641971 0.986159
vt 0.618317 0.682649
vt 0.641971 0.696490
vt 0.807582 0.051656
vt 0.860802 0.392980
vt 0.807582 0.341324
vt 0.595707 0.425728
vt 0.614794 0.663742
vt 0.595707 0.649901
vt 0.595707 0.392980
vt 0.626116 0.341324
vt 0.042411 0.755974
vt 0.084821 0.720463
vt 0.062093 0.768972
vt 0.278462 0.051656
vt 0.000000 0.000000
vt 0.330610 0.000000
vt 0.084821 0.775470
vt 0.278462 0.275828
vt 0.330610 0.327483
vt 0.052149 0.275828
vt 0.052149 0.051656
vt 0.000000 0.327483
vt 0.730647 0.737656
vt 0.707919 0.731157
vt 0.730647 0.682649
vt 0.688236 0.718159
vt 0.730647 0.718159
vt 0.773057 0.682649
vt 0.750330 0.731157
vt 0.773057 0.737656
vt 0.042411 0.775470
vt 0.019683 0.768972
vt 0.042411 0.720463
vt 0.000000 0.755974
vt 0.934608 0.392980
vt 0.595706 0.392980
vt 0.860802 0.392980
vt 0.595706 0.000000
vt 0.907269 0.392980
vt 0.265096 0.327483
vt 0.311562 0.327483
vt 0.860802 0.000000
vn -0.5907 -0.8069 0.0000
vn 0.9391 -0.3437 0.0000
vn -0.5907 0.8069 0.0000
vn 0.9391 0.3437 0.0000
vn -0.5907 0.0000 0.8069
vn 0.9391 0.0000 0.3437
vn -0.8069 0.5907 0.0000
vn -0.3437 -0.9391 0.0000
vn 0.8069 0.5907 0.0000
vn 0.3437 -0.9391 0.0000
vn 0.0000 0.5907 0.8069
vn 0.0000 -0.9391 0.3437
vn 0.5907 0.8069 0.0000
vn -0.9391 0.3437 0.0000
vn 0.5907 -0.8069 0.0000
vn -0.9391 -0.3437 0.0000
vn 0.5907 0.0000 0.8069
vn -0.9391 0.0000 0.3437
vn 0.8069 -0.5907 0.0000
vn 0.3437 0.9391 0.0000
vn -0.8069 -0.5907 0.0000
vn -0.3437 0.9391 0.0000
vn 0.0000 -0.5907 0.8069
vn 0.0000 0.9391 0.3437
vn 0.0000 0.7071 0.7071
vn 0.0000 0.3437 -0.9391
vn 0.7071 0.0000 0.7071
vn 0.3437 0.0000 -0.9391
vn 0.0000 0.0000 -1.0000
vn 0.0000 -0.3437 -0.9391
vn 0.0000 0.0000 1.0000
vn -0.3437 0.0000 -0.9391
vn -0.7071 0.0000 0.7071
vn -0.0000 -0.7071 0.7071
usemtl Material.001
s off
f 18/1/1 1/2/1 17/3/1
f 17/4/2 4/5/2 18/6/2
f 20/7/3 7/8/3 19/9/3
f 19/10/4 6/11/4 20/12/4
f 17/13/5 5/14/5 20/15/5
f 20/12/6 2/16/6 17/17/6
f 22/18/7 5/19/7 21/20/7
f 21/21/8 8/22/8 22/23/8
f 24/24/9 15/25/9 23/26/9
f 23/27/10 14/28/10 24/29/10
f 21/30/11 13/31/11 24/32/11
f 24/29/12 6/33/12 21/34/12
f 26/35/13 13/36/13 25/37/13
f 25/38/14 16/39/14 26/40/14
f 28/41/15 11/42/15 27/43/15
f 27/44/16 10/45/16 28/46/16
f 25/47/17 9/48/17 28/49/17
f 28/46/18 14/50/18 25/51/18
f 30/52/19 9/53/19 29/54/19
f 29/55/20 12/56/20 30/57/20
f 32/58/21 3/59/21 31/60/21
f 31/61/22 2/62/22 32/63/22
f 29/64/23 1/65/23 32/66/23
f 32/63/24 10/67/24 29/68/24
f 26/69/25 16/70/25 15/71/25
f 34/72/26 6/73/26 14/74/26
f 23/75/27 15/71/27 16/70/27
f 35/76/28 14/74/28 10/77/28
f 34/72/29 36/78/29 33/79/29
f 36/78/30 10/77/30 2/80/30
f 9/48/31 5/14/31 1/65/31
f 33/79/32 2/80/32 6/73/32
f 19/81/25 7/82/25 8/83/25
f 22/84/33 8/83/33 7/82/33
f 18/85/34 4/86/34 3/87/34
f 31/88/33 3/87/33 4/86/33
f 27/89/34 11/90/34 12/91/34
f 30/92/27 12/91/27 11/90/27
f 18/1/1 3/59/1 1/2/1
f 17/4/2 2/93/2 4/5/2
f 20/7/3 5/19/3 7/8/3
f 19/10/4 8/94/4 6/11/4
f 17/13/5 1/65/5 5/14/5
f 20/12/6 6/11/6 2/16/6
f 22/18/7 7/8/7 5/19/7
f 21/21/8 6/95/8 8/22/8
f 24/24/9 13/36/9 15/25/9
f 23/27/10 16/96/10 14/28/10
f 21/30/11 5/14/11 13/31/11
f 24/29/12 14/28/12 6/33/12
f 26/35/13 15/25/13 13/36/13
f 25/38/14 14/97/14 16/39/14
f 28/41/15 9/53/15 11/42/15
f 27/44/16 12/98/16 10/45/16
f 25/47/17 13/31/17 9/48/17
f 28/46/18 10/45/18 14/50/18
f 30/52/19 11/42/19 9/53/19
f 29/55/20 10/99/20 12/56/20
f 32/58/21 1/2/21 3/59/21
f 31/61/22 4/100/22 2/62/22
f 29/64/23 9/48/23 1/65/23
f 32/63/24 2/62/24 10/67/24
f 34/72/26 33/79/26 6/73/26
f 35/76/28 34/72/28 14/74/28
f 34/72/29 35/76/29 36/78/29
f 36/78/30 35/76/30 10/77/30
f 9/48/31 13/31/31 5/14/31
f 33/79/32 36/78/32 2/80/32
